<?xml version="1.0" encoding="utf-8"?>
<!-- Generator: Adobe Illustrator 25.2.3, SVG Export Plug-In . SVG Version: 6.00 Build 0)  -->
<svg version="1.1" id="cat-pg" xmlns="http://www.w3.org/2000/svg" xmlns:xlink="http://www.w3.org/1999/xlink" x="0px" y="0px"
	 viewBox="0 0 32 32" width="32px" height="32px" style="enable-background:new 0 0 32 32;" xml:space="preserve">
<style type="text/css">
	.st0{fill:#000000;}
</style>
<g>
	<path class="st0" d="M6.7,5.5H5.3v-1c0-0.4,0.3-0.7,0.7-0.7h1v1.5H6.7V5.5z"/>
	<path class="st0" d="M23,5.2h-2V3.8h2V5.2z M19,5.2h-2V3.8h2V5.2z M15,5.2h-2V3.8h2V5.2z M11,5.2H9V3.8h2V5.2z"/>
	<path class="st0" d="M26.7,5.5h-1.4V5.2H25V3.8h1c0.4,0,0.7,0.3,0.7,0.7V5.5z"/>
	<path class="st0" d="M26.7,15.8h-1.4v-1.7h1.4V15.8z M26.7,12.4h-1.4v-1.7h1.4V12.4z M26.7,8.9h-1.4V7.2h1.4V8.9z"/>
	<path class="st0" d="M26,19.2h-1v-1.4h0.3v-0.3h1.4v1C26.7,18.9,26.4,19.2,26,19.2z"/>
	<path class="st0" d="M23,19.2h-2v-1.4h2V19.2z M19,19.2h-2v-1.4h2V19.2z M15,19.2h-2v-1.4h2V19.2z M11,19.2H9v-1.4h2V19.2z"/>
	<path class="st0" d="M7,19.2H6c-0.4,0-0.7-0.3-0.7-0.7v-1h1.5v0.3H7V19.2z"/>
	<path class="st0" d="M6.7,15.8H5.3v-1.7h1.5v1.7H6.7z M6.7,12.4H5.3v-1.7h1.5v1.7H6.7z M6.7,8.9H5.3V7.2h1.5v1.7H6.7z"/>
</g>
<g>
	<path class="st0" d="M20,23.7h-1.7v-1.4H20V23.7z M16.8,23.7h-1.7v-1.4h1.7V23.7z M13.7,23.7H12v-1.4h1.7V23.7z"/>
</g>
<path class="st0" d="M9,25.5l-1.3-0.7l0.9-1.5L9.8,24L9,25.5z M10.7,22.5l-1.3-0.7l0.9-1.5l1.3,0.7L10.7,22.5z"/>
<path class="st0" d="M23,25.5L22.2,24l1.3-0.7l0.9,1.5L23,25.5z M21.3,22.5L20.4,21l1.3-0.7l0.9,1.5L21.3,22.5z"/>
<rect x="6.2" y="26.7" transform="matrix(0.4998 -0.8662 0.8662 0.4998 -20.1967 19.8438)" class="st0" width="1.7" height="1.4"/>
<rect x="24.2" y="26.5" transform="matrix(0.8657 -0.5005 0.5005 0.8657 -10.3386 16.1503)" class="st0" width="1.5" height="1.7"/>
</svg>
